<mxfile host="app.diagrams.net" modified="2023-01-13T20:28:42.461Z" agent="5.0 (Windows NT 10.0; Win64; x64) AppleWebKit/537.36 (KHTML, like Gecko) Chrome/109.0.0.0 Safari/537.36" version="20.7.4" etag="XtQo31u6vtfnxP8qbdgx" type="github">
  <diagram id="bFvzltIdOXOrRgXnoozT" name="Page-1">
    <mxGraphModel dx="2450" dy="1746" grid="1" gridSize="10" guides="1" tooltips="1" connect="1" arrows="1" fold="1" page="1" pageScale="1" pageWidth="850" pageHeight="1100" math="0" shadow="0">
      <root>
        <mxCell id="0" />
        <mxCell id="1" parent="0" />
        <mxCell id="tcmqe_ogdBvdk2FHcx4M-1" value="&lt;span style=&quot;text-align: start; background-color: rgb(255, 255, 255);&quot;&gt;&lt;font color=&quot;#331a00&quot; face=&quot;Times New Roman&quot; style=&quot;font-size: 36px;&quot;&gt;&lt;i style=&quot;&quot;&gt;&lt;b style=&quot;&quot;&gt;Infrastructure&lt;/b&gt;&lt;/i&gt;&lt;/font&gt;&lt;/span&gt;" style="rounded=1;whiteSpace=wrap;html=1;" vertex="1" parent="1">
          <mxGeometry x="220" y="-20" width="360" height="90" as="geometry" />
        </mxCell>
        <mxCell id="tcmqe_ogdBvdk2FHcx4M-6" value="&lt;i&gt;&lt;font style=&quot;font-size: 24px;&quot;&gt;website&lt;/font&gt;&lt;/i&gt;" style="sketch=0;aspect=fixed;pointerEvents=1;shadow=0;dashed=0;html=1;strokeColor=none;labelPosition=center;verticalLabelPosition=bottom;verticalAlign=top;align=center;shape=mxgraph.mscae.enterprise.website_generic;fillColor=#7D7D7D;fontFamily=Times New Roman;fontSize=36;fontColor=#331A00;" vertex="1" parent="1">
          <mxGeometry x="340" y="750" width="204.55" height="180" as="geometry" />
        </mxCell>
        <mxCell id="tcmqe_ogdBvdk2FHcx4M-7" value="&lt;i&gt;s3 bucket&lt;/i&gt;" style="outlineConnect=0;dashed=0;verticalLabelPosition=bottom;verticalAlign=top;align=center;html=1;shape=mxgraph.aws3.s3;fillColor=#E05243;gradientColor=none;fontFamily=Times New Roman;fontSize=24;fontColor=#331A00;" vertex="1" parent="1">
          <mxGeometry x="540" y="340" width="180" height="190" as="geometry" />
        </mxCell>
        <mxCell id="tcmqe_ogdBvdk2FHcx4M-8" value="&lt;font style=&quot;font-size: 18px;&quot;&gt;&lt;i&gt;AWS Elastic Beanstalk&lt;/i&gt;&lt;/font&gt;" style="sketch=0;outlineConnect=0;fontColor=#232F3E;gradientColor=none;strokeColor=#ffffff;fillColor=#232F3E;dashed=0;verticalLabelPosition=middle;verticalAlign=bottom;align=center;html=1;whiteSpace=wrap;fontSize=10;fontStyle=1;spacing=3;shape=mxgraph.aws4.productIcon;prIcon=mxgraph.aws4.elastic_beanstalk;fontFamily=Times New Roman;" vertex="1" parent="1">
          <mxGeometry x="130" y="350" width="170" height="220" as="geometry" />
        </mxCell>
        <mxCell id="tcmqe_ogdBvdk2FHcx4M-11" value="&lt;font style=&quot;font-size: 24px;&quot;&gt;&lt;i&gt;RDS&lt;/i&gt;&lt;/font&gt;" style="sketch=0;points=[[0,0,0],[0.25,0,0],[0.5,0,0],[0.75,0,0],[1,0,0],[0,1,0],[0.25,1,0],[0.5,1,0],[0.75,1,0],[1,1,0],[0,0.25,0],[0,0.5,0],[0,0.75,0],[1,0.25,0],[1,0.5,0],[1,0.75,0]];outlineConnect=0;fontColor=#232F3E;gradientColor=#4D72F3;gradientDirection=north;fillColor=#3334B9;strokeColor=#ffffff;dashed=0;verticalLabelPosition=bottom;verticalAlign=top;align=center;html=1;fontSize=12;fontStyle=0;aspect=fixed;shape=mxgraph.aws4.resourceIcon;resIcon=mxgraph.aws4.rds;fontFamily=Times New Roman;" vertex="1" parent="1">
          <mxGeometry x="340" y="120" width="130" height="130" as="geometry" />
        </mxCell>
        <mxCell id="tcmqe_ogdBvdk2FHcx4M-13" value="" style="edgeStyle=segmentEdgeStyle;endArrow=classic;html=1;curved=0;rounded=0;endSize=8;startSize=8;fontFamily=Times New Roman;fontSize=24;fontColor=#331A00;strokeColor=#660000;" edge="1" parent="1">
          <mxGeometry x="1" y="255" width="50" height="50" relative="1" as="geometry">
            <mxPoint x="320" y="200" as="sourcePoint" />
            <mxPoint x="220" y="330" as="targetPoint" />
            <Array as="points">
              <mxPoint x="220" y="200" />
              <mxPoint x="220" y="320" />
            </Array>
            <mxPoint x="65" y="-170" as="offset" />
          </mxGeometry>
        </mxCell>
        <mxCell id="tcmqe_ogdBvdk2FHcx4M-14" value="" style="html=1;shadow=0;dashed=0;align=center;verticalAlign=middle;shape=mxgraph.arrows2.twoWayArrow;dy=0.6;dx=35;fontFamily=Times New Roman;fontSize=24;fontColor=#331A00;" vertex="1" parent="1">
          <mxGeometry x="320" y="410" width="210" height="60" as="geometry" />
        </mxCell>
        <mxCell id="tcmqe_ogdBvdk2FHcx4M-15" value="&lt;i&gt;&lt;b&gt;&lt;font color=&quot;#006600&quot;&gt;backend&lt;/font&gt;&lt;/b&gt;&lt;/i&gt;" style="ellipse;shape=cloud;whiteSpace=wrap;html=1;fontFamily=Times New Roman;fontSize=24;fontColor=#331A00;" vertex="1" parent="1">
          <mxGeometry x="-20" y="370" width="140" height="110" as="geometry" />
        </mxCell>
        <mxCell id="tcmqe_ogdBvdk2FHcx4M-16" value="Frontend" style="ellipse;shape=cloud;whiteSpace=wrap;html=1;fontFamily=Times New Roman;fontSize=24;fontColor=#006600;" vertex="1" parent="1">
          <mxGeometry x="720" y="390" width="150" height="110" as="geometry" />
        </mxCell>
        <mxCell id="tcmqe_ogdBvdk2FHcx4M-17" value="" style="html=1;shadow=0;dashed=0;align=center;verticalAlign=middle;shape=mxgraph.arrows2.tailedNotchedArrow;dy1=10;dx1=31.71;notch=20;arrowHead=20;dx2=25;dy2=30;fontFamily=Times New Roman;fontSize=24;fontColor=#006600;rotation=90;" vertex="1" parent="1">
          <mxGeometry x="364.37" y="540.63" width="136.25" height="225" as="geometry" />
        </mxCell>
        <mxCell id="tcmqe_ogdBvdk2FHcx4M-21" value="&lt;i&gt;&lt;font color=&quot;#000066&quot; style=&quot;font-size: 24px;&quot;&gt;getting data&lt;/font&gt;&lt;/i&gt;" style="shape=partialRectangle;whiteSpace=wrap;html=1;right=0;top=0;bottom=0;fillColor=none;routingCenterX=-0.5;fontFamily=Times New Roman;fontSize=24;fontColor=#006600;" vertex="1" parent="1">
          <mxGeometry x="220" y="270" width="130" height="40" as="geometry" />
        </mxCell>
        <mxCell id="tcmqe_ogdBvdk2FHcx4M-23" value="&lt;i&gt;database&lt;/i&gt;" style="shape=partialRectangle;whiteSpace=wrap;html=1;right=0;top=0;bottom=0;fillColor=none;routingCenterX=-0.5;fontFamily=Times New Roman;fontSize=24;fontColor=#000066;" vertex="1" parent="1">
          <mxGeometry x="340" y="70" width="130" height="50" as="geometry" />
        </mxCell>
        <mxCell id="tcmqe_ogdBvdk2FHcx4M-26" value="&lt;b&gt;&lt;i&gt;&lt;font color=&quot;#331a00&quot;&gt;connection&lt;/font&gt;&lt;/i&gt;&lt;/b&gt;" style="html=1;verticalLabelPosition=bottom;align=center;labelBackgroundColor=#ffffff;verticalAlign=top;strokeWidth=2;strokeColor=#0080F0;shadow=0;dashed=0;shape=mxgraph.ios7.icons.link;fontFamily=Times New Roman;fontSize=24;fontColor=#000066;" vertex="1" parent="1">
          <mxGeometry x="392.5" y="340" width="80" height="40" as="geometry" />
        </mxCell>
        <mxCell id="tcmqe_ogdBvdk2FHcx4M-28" value="Serving" style="shape=partialRectangle;whiteSpace=wrap;html=1;right=0;top=0;bottom=0;fillColor=none;routingCenterX=-0.5;fontFamily=Times New Roman;fontSize=36;fontColor=#000000;" vertex="1" parent="1">
          <mxGeometry x="450" y="628.13" width="140" height="50" as="geometry" />
        </mxCell>
      </root>
    </mxGraphModel>
  </diagram>
</mxfile>
